<svg width="1378" height="960" viewBox="0 0 1378 960" fill="none" xmlns="http://www.w3.org/2000/svg">
<rect width="1343.89" height="920.363" rx="32.8916" fill="white" fill-opacity="0.01"/>
<ellipse cx="806.218" cy="435.288" rx="372.363" ry="372.694" fill="#D6E4FF"/>
<path fill-rule="evenodd" clip-rule="evenodd" d="M1221.61 156.66L1197.39 232.219H1212.04L1236.26 156.66H1221.61Z" fill="#597EF7"/>
<path fill-rule="evenodd" clip-rule="evenodd" d="M1187.08 165.25H1171.53H1161.73C1160.97 165.25 1160.35 165.866 1160.35 166.625V176.356V212.523V222.255C1160.35 223.014 1160.97 223.629 1161.73 223.629H1171.53H1187.08C1187.84 223.629 1188.46 223.014 1188.46 222.255V213.898C1188.46 213.139 1187.84 212.523 1187.08 212.523H1171.53V176.356H1187.08C1187.84 176.356 1188.46 175.741 1188.46 174.982V166.625C1188.46 165.866 1187.84 165.25 1187.08 165.25Z" fill="#CCD7EE"/>
<path fill-rule="evenodd" clip-rule="evenodd" d="M1271.91 165.25H1262.12H1246.57C1245.81 165.25 1245.19 165.866 1245.19 166.625V174.982C1245.19 175.741 1245.81 176.356 1246.57 176.356H1262.12V212.523H1246.57C1245.81 212.523 1245.19 213.139 1245.19 213.898V222.255C1245.19 223.014 1245.81 223.629 1246.57 223.629H1262.12H1271.91C1272.68 223.629 1273.3 223.014 1273.3 222.255V213.898V174.982V166.625C1273.3 165.866 1272.68 165.25 1271.91 165.25Z" fill="#CCD7EE"/>
<path fill-rule="evenodd" clip-rule="evenodd" d="M92.3708 235.692L152.4 142.726C150.5 141.179 149.287 138.821 149.287 136.18C149.287 131.52 153.064 127.742 157.724 127.742C162.385 127.742 166.162 131.52 166.162 136.18C166.162 139.314 164.453 142.05 161.916 143.505L207.057 246.797C208.021 246.414 209.072 246.204 210.172 246.204C214.832 246.204 218.61 249.981 218.61 254.641C218.61 259.302 214.832 263.079 210.172 263.079C205.681 263.079 202.01 259.571 201.749 255.146L96.855 244.816C96.1112 248.716 92.6833 251.663 88.5668 251.663C83.9067 251.663 80.1289 247.886 80.1289 243.226C80.1289 238.565 83.9067 234.788 88.5668 234.788C89.9353 234.788 91.2278 235.113 92.3708 235.692ZM157.724 144.618C158.058 144.618 158.388 144.599 158.712 144.561L171.903 206.44C168.566 207.565 166.162 210.72 166.162 214.437C166.162 215.247 166.276 216.029 166.489 216.77L96.2635 239.762C95.6986 238.509 94.8364 237.418 93.7668 236.58L153.779 143.641C154.956 144.265 156.299 144.618 157.724 144.618ZM167.102 218.311L96.7911 241.331C96.9267 241.922 97.0003 242.537 97.0045 243.168L201.812 253.49C202.025 251.927 202.667 250.499 203.614 249.331L179.196 221.515C177.874 222.375 176.295 222.875 174.6 222.875C171.336 222.875 168.505 221.022 167.102 218.311ZM180.489 220.48L204.78 248.151C205.036 247.938 205.304 247.74 205.584 247.558L160.407 144.183C160.381 144.191 160.355 144.2 160.328 144.209L173.516 206.069C173.871 206.023 174.233 206 174.6 206C179.26 206 183.038 209.777 183.038 214.437C183.038 216.807 182.062 218.948 180.489 220.48Z" fill="#597EF7"/>
<path fill-rule="evenodd" clip-rule="evenodd" d="M72.0154 315.257C81.3712 315.257 88.9732 322.766 89.1243 332.086L89.1266 332.368C90.3088 363.613 120.476 371.753 130.753 373.623C140.029 373.823 147.488 381.405 147.488 390.73C147.488 400.18 139.827 407.841 130.377 407.841C122.711 407.841 116.222 402.8 114.045 395.852L113.978 395.924C105.348 353.653 79.0521 349.758 72.0913 349.479L72.0154 349.48C71.7351 349.48 71.4563 349.473 71.1793 349.46C70.6644 349.459 70.3858 349.48 70.3858 349.48L70.4624 349.41C61.7399 348.625 54.9043 341.295 54.9043 332.368C54.9043 322.918 62.5652 315.257 72.0154 315.257Z" fill="#E4ECF7"/>
<path fill-rule="evenodd" clip-rule="evenodd" d="M183.751 284.49C186.763 288.258 186.157 293.758 182.397 296.776C180.734 298.11 178.734 298.735 176.758 298.692L176.757 298.691C156.572 301.268 153.311 313.723 152.795 317.139C152.794 317.152 152.792 317.166 152.791 317.18C152.775 317.324 152.756 317.466 152.733 317.607C152.705 317.866 152.699 318.007 152.699 318.007L152.669 317.965C151.783 322.349 147.686 325.408 143.163 324.907C138.375 324.377 134.923 320.058 135.451 315.261C135.975 310.511 140.205 307.073 144.935 307.519L145.079 307.533C160.965 308.685 166.781 293.848 168.308 288.725C168.609 286.601 169.687 284.581 171.491 283.133C175.251 280.116 180.74 280.723 183.751 284.49Z" fill="#E4ECF7"/>
<path fill-rule="evenodd" clip-rule="evenodd" d="M178.037 281.109C182.84 281.64 186.303 285.963 185.772 290.766C185.242 295.568 180.918 299.031 176.116 298.501C171.313 297.97 167.85 293.647 168.381 288.844C168.911 284.042 173.235 280.579 178.037 281.109Z" fill="#E4ECF7"/>
<path fill-rule="evenodd" clip-rule="evenodd" d="M1224.1 677.067C1227.11 680.834 1226.51 686.335 1222.75 689.352C1221.08 690.687 1219.08 691.312 1217.11 691.269L1217.11 691.268C1196.92 693.845 1193.66 706.3 1193.14 709.716C1193.14 709.729 1193.14 709.743 1193.14 709.757C1193.12 709.9 1193.1 710.043 1193.08 710.184C1193.05 710.443 1193.05 710.584 1193.05 710.584L1193.02 710.541C1192.13 714.926 1188.04 717.985 1183.51 717.484C1178.72 716.954 1175.27 712.635 1175.8 707.837C1176.32 703.088 1180.55 699.649 1185.28 700.095L1185.43 700.11C1201.31 701.262 1207.13 686.424 1208.66 681.302C1208.96 679.177 1210.04 677.158 1211.84 675.71C1215.6 672.692 1221.09 673.3 1224.1 677.067Z" fill="#E4ECF7"/>
<path fill-rule="evenodd" clip-rule="evenodd" d="M1218.39 673.686C1223.19 674.217 1226.65 678.54 1226.12 683.342C1225.59 688.145 1221.27 691.608 1216.46 691.077C1211.66 690.547 1208.2 686.223 1208.73 681.421C1209.26 676.618 1213.58 673.155 1218.39 673.686Z" fill="#E4ECF7"/>
<path fill-rule="evenodd" clip-rule="evenodd" d="M1151.1 461.442V465.281L1118.47 465.281V461.442H1109.08V470.827H1118.47V466.988L1145.53 466.988C1131.08 471.248 1120.29 484.06 1119.01 499.574C1116.77 499.93 1115.06 501.869 1115.06 504.208C1115.06 506.8 1117.16 508.901 1119.75 508.901C1122.34 508.901 1124.44 506.8 1124.44 504.208C1124.44 501.948 1122.84 500.061 1120.72 499.615C1122.13 483.087 1134.86 469.793 1151.1 467.525V470.827H1160.49V467.459C1176.97 469.523 1189.95 482.923 1191.37 499.623C1189.26 500.082 1187.68 501.96 1187.68 504.208C1187.68 506.8 1189.78 508.901 1192.38 508.901C1194.97 508.901 1197.07 506.8 1197.07 504.208C1197.07 501.856 1195.34 499.909 1193.08 499.568C1191.79 484.057 1181.01 471.247 1166.56 466.988L1193.52 466.988V470.827H1202.91V461.442H1193.52V465.281L1160.49 465.281V461.442H1151.1ZM1152.81 463.148H1158.78V469.121H1152.81V463.148ZM1110.79 469.121V463.148H1116.76V469.121H1110.79ZM1195.23 463.148H1201.2V469.121H1195.23V463.148ZM1116.76 504.208C1116.76 502.559 1118.1 501.222 1119.75 501.222C1119.76 501.222 1119.78 501.222 1119.79 501.222C1121.42 501.245 1122.74 502.573 1122.74 504.208C1122.74 505.858 1121.4 507.195 1119.75 507.195C1118.1 507.195 1116.76 505.858 1116.76 504.208ZM1192.31 501.223C1192.32 501.222 1192.33 501.222 1192.34 501.222C1192.35 501.222 1192.36 501.222 1192.36 501.222L1192.38 501.222C1194.03 501.222 1195.36 502.559 1195.36 504.208C1195.36 505.858 1194.03 507.195 1192.38 507.195C1190.73 507.195 1189.39 505.858 1189.39 504.208C1189.39 502.583 1190.69 501.26 1192.31 501.223Z" fill="#597EF7"/>
<path d="M1180.09 532.772L1156.1 484.78L1132.1 532.772H1180.09Z" fill="#597EF7"/>
<path d="M404.546 112.925C407.128 115.508 411.314 115.507 413.897 112.925C416.479 110.343 416.479 106.156 413.897 103.574C411.315 100.992 407.128 100.992 404.546 103.574C401.963 106.156 401.963 110.343 404.546 112.925Z" fill="#597EF7"/>
<path d="M460.174 169.448C462.756 172.03 466.943 172.03 469.525 169.448C472.107 166.866 472.107 162.679 469.525 160.097C466.943 157.515 462.756 157.515 460.174 160.097C457.592 162.679 457.592 166.866 460.174 169.448Z" fill="#597EF7"/>
<path d="M423.193 127.132C429.856 120.468 440.66 120.468 447.324 127.131C453.988 133.795 453.988 144.599 447.324 151.263C440.66 157.927 429.856 157.927 423.192 151.263C416.529 144.599 416.529 133.795 423.193 127.132Z" fill="#597EF7"/>
<path d="M485.797 131.094C485.797 134.746 482.837 137.706 479.185 137.706C475.533 137.706 472.573 134.746 472.573 131.094C472.573 127.442 475.533 124.482 479.185 124.482C482.837 124.482 485.797 127.442 485.797 131.094Z" fill="#597EF7"/>
<path fill-rule="evenodd" clip-rule="evenodd" d="M604.932 237.572C605.055 237.572 605.177 237.591 605.297 237.629C605.678 237.749 605.976 238.051 606.092 238.434L612.262 258.862C612.547 259.808 613.381 259.954 613.629 259.977C613.878 260 614.724 260.003 615.172 259.122L643.381 203.733C643.66 203.186 643.607 202.565 643.241 202.073C642.874 201.581 642.296 201.353 641.692 201.465L579.64 212.95C578.675 213.129 578.435 213.936 578.384 214.179C578.334 214.422 578.232 215.258 579.045 215.808L597.303 228.16C597.629 228.381 597.828 228.747 597.836 229.141C597.844 229.535 597.66 229.909 597.344 230.142L571.371 249.321C571.101 249.522 571.038 249.895 571.229 250.173L576.922 258.432C577.055 258.623 577.24 258.677 577.339 258.692C577.437 258.706 577.631 258.711 577.814 258.567L604.185 237.831C604.4 237.661 604.665 237.572 604.932 237.572Z" fill="#597EF7"/>
</svg>
