<svg width="1344" height="960" viewBox="0 0 1344 960" fill="none" xmlns="http://www.w3.org/2000/svg">
<rect y="24" width="1343.89" height="920.363" rx="32.5792" fill="#F3F6FE" fill-opacity="0.05"/>
<g clip-path="url(#clip0)">
<path d="M829.745 708.58L773.46 750.32H1054.44L997.846 708.58H829.745Z" fill="#CED7EC"/>
<path d="M997.847 750.281L1054.44 750.32L997.847 708.58V750.281Z" fill="#A3B5D6"/>
<path d="M821.538 634.392L869.511 908.991C870.608 915.277 876.603 919.491 882.889 918.387L904.249 914.657C910.534 913.554 914.748 907.565 913.645 901.28L865.678 626.681L821.538 634.392Z" fill="#FFA940"/>
<path d="M828.01 587.807L821.543 634.419L865.677 626.708L845.02 584.839L828.01 587.807Z" fill="#FFE7BA"/>
<path d="M833.075 567.369C832.688 567.434 832.378 567.743 832.307 568.13L828.551 587.742L844.684 584.922L834.075 567.808C833.895 567.524 833.585 567.35 833.256 567.35C833.191 567.35 833.133 567.356 833.075 567.369Z" fill="#253369"/>
<path d="M834.856 632.224L884.792 918.059L902.809 914.91L852.88 629.069L834.856 632.224Z" fill="#FE9921"/>
<path d="M896.278 896.421L895.517 918.291C895.278 925.054 900.569 930.726 907.332 930.959C914.095 931.198 919.768 925.906 920.007 919.149L920.762 897.273L896.284 896.421H896.278Z" fill="#253369"/>
<path d="M918.698 569.112L917.349 576.85C917.052 578.54 918.195 580.16 919.885 580.451C921.583 580.747 923.196 579.612 923.493 577.914L924.841 570.177C925.138 568.48 924.002 566.866 922.305 566.57C922.125 566.544 921.944 566.524 921.763 566.524C920.279 566.524 918.963 567.589 918.698 569.112Z" fill="#50548B"/>
<path d="M850.422 876.307C849.318 882.599 853.539 888.587 859.831 889.685L872.499 891.892C878.79 892.982 884.779 888.775 885.87 882.483L932.178 616.608L896.724 610.433L850.422 876.307Z" fill="#597EF7"/>
<path d="M915.554 576.785L896.724 610.432L932.197 616.615L925.279 578.45C925.131 577.65 924.498 577.018 923.692 576.888L917.574 575.824C917.464 575.804 917.355 575.798 917.245 575.798C916.554 575.798 915.903 576.166 915.554 576.785Z" fill="#CED7EC"/>
<path d="M767.743 605.147L755.546 613.627C754.152 614.595 753.636 616.415 754.314 617.97L761.709 634.903C762.49 636.71 764.594 637.53 766.401 636.742L779.752 630.915C781.559 630.121 782.385 628.024 781.598 626.217L773.054 606.638C772.628 605.663 771.783 604.928 770.75 604.637C770.44 604.553 770.111 604.508 769.795 604.508C769.066 604.508 768.356 604.721 767.743 605.147Z" fill="#FF7946"/>
<path d="M765.684 682.941L858.146 894.776L908.165 872.945L815.703 661.11L765.684 682.941Z" fill="#FF7946"/>
<path d="M765.684 682.941L773.782 701.481L823.802 679.657L815.703 661.11L765.684 682.941Z" fill="#253369"/>
<path d="M759.47 631.876L760.709 671.525L765.684 682.941L815.703 661.109L810.76 649.784L780.946 622.5L759.47 631.876Z" fill="#CED7EC"/>
<path d="M760.695 671.725L765.677 683.134L815.69 661.296L810.708 649.894L760.695 671.725Z" fill="#F5F5F5"/>
<path d="M827.021 721.751L800.485 723.584C799.827 723.629 799.227 723.997 798.885 724.565C798.537 725.126 798.491 725.829 798.756 726.442L798.93 726.836C799.279 727.63 800.085 728.12 800.95 728.056L809.888 727.398C810.753 727.333 811.566 727.83 811.914 728.624L814.186 733.831C816.993 740.265 821.613 743.189 827.867 742.614C834.12 742.046 835.862 738.607 833.145 732.38L829.035 722.977C828.706 722.229 827.963 721.751 827.15 721.751C827.112 721.751 827.066 721.751 827.021 721.751ZM821.413 737.323C820.252 736.51 819.213 735.148 818.38 733.238L816.799 729.618C816.535 729.011 816.58 728.314 816.922 727.746C817.264 727.178 817.864 726.81 818.522 726.765L824.563 726.32C825.427 726.262 826.234 726.746 826.582 727.54L828.699 732.399C829.512 734.251 829.693 735.684 829.299 736.619C828.899 737.555 827.828 738.142 825.976 738.304C825.672 738.329 825.363 738.342 825.072 738.342C823.62 738.342 822.375 738.007 821.413 737.323Z" fill="white"/>
<path d="M837.341 745.506L811.102 748.016C810.456 748.08 809.869 748.448 809.54 749.01C809.205 749.571 809.166 750.262 809.417 750.855L816.374 766.788C816.735 767.608 817.587 768.098 818.478 767.995C819.117 767.924 819.691 767.543 820.014 766.988C820.336 766.427 820.375 765.749 820.111 765.156L815.593 754.792C815.342 754.192 815.38 753.508 815.709 752.946C816.039 752.391 816.619 752.017 817.265 751.959L822.234 751.507C823.111 751.423 823.937 751.907 824.292 752.714L829.113 763.749C829.474 764.569 830.332 765.065 831.223 764.969C831.862 764.891 832.43 764.51 832.759 763.949C833.075 763.394 833.114 762.71 832.856 762.116L829.087 753.482C828.829 752.882 828.874 752.198 829.203 751.643C829.532 751.088 830.113 750.713 830.758 750.649L834.94 750.229C835.818 750.145 836.65 750.623 837.005 751.43L842.123 763.142C842.484 763.968 843.336 764.452 844.226 764.349C844.872 764.272 845.446 763.897 845.762 763.329C846.085 762.755 846.117 762.071 845.84 761.477L839.393 746.712C839.064 745.964 838.335 745.493 837.534 745.493C837.47 745.493 837.405 745.499 837.341 745.506Z" fill="white"/>
<path d="M774.201 801.268V935.728C774.201 941.529 778.906 946.234 784.707 946.234H1043.8C1049.6 946.234 1054.3 941.529 1054.3 935.728V801.268H774.201Z" fill="#597EF7"/>
<path d="M774.201 770.602V848.945L1054.3 826.603V770.602H774.201Z" fill="#3D60E0"/>
<g clip-path="url(#clip1)">
<path d="M934.593 767.506C951.56 777.301 973.557 771.002 983.694 753.444L1002.06 721.636L971.322 703.89C954.355 694.095 932.358 700.394 922.221 717.952C912.084 735.51 917.627 757.71 934.593 767.506Z" fill="#0ACF83"/>
<path d="M995.863 590.4C1006.03 572.783 1028.06 566.435 1045.03 576.231L1075.76 593.977L1038.91 657.806L1008.17 640.061C991.207 630.265 985.692 608.017 995.863 590.4Z" fill="#F24E1E"/>
<path d="M1075.76 593.977L1106.5 611.723C1123.47 621.519 1128.98 643.766 1118.81 661.383C1108.64 679 1086.61 685.348 1069.65 675.552L1038.91 657.806L1075.76 593.977Z" fill="#FF7262"/>
<path d="M1082.08 724.998C1071.91 742.615 1049.89 748.963 1032.92 739.167C1015.95 729.371 1010.44 707.123 1020.61 689.506C1030.78 671.89 1052.8 665.542 1069.77 675.338C1086.74 685.133 1092.25 707.381 1082.08 724.998Z" fill="#1ABCFE"/>
<path d="M959.135 654.015C969.306 636.398 991.331 630.051 1008.3 639.846L1039.03 657.592L1002.18 721.422L971.446 703.676C954.479 693.88 948.964 671.632 959.135 654.015Z" fill="#A259FF"/>
</g>
<path d="M773.479 750.319L746.15 810.444C745.111 812.619 745.253 815.168 746.531 817.207C747.815 819.24 750.054 820.479 752.455 820.485H1075.02C1077.48 820.485 1079.76 819.194 1081.03 817.084C1082.29 814.974 1082.36 812.354 1081.22 810.192L1054.44 750.319H773.479Z" fill="#E4EBF7"/>
<path d="M823.843 893.075C823.556 896.109 822.437 898.479 820.483 900.185C818.53 901.877 815.933 902.724 812.69 902.724C810.425 902.724 808.426 902.19 806.694 901.122C804.976 900.041 803.647 898.511 802.71 896.532C801.772 894.553 801.284 892.255 801.245 889.638V886.981C801.245 884.299 801.72 881.936 802.671 879.892C803.621 877.847 804.982 876.272 806.753 875.165C808.537 874.058 810.594 873.505 812.925 873.505C816.063 873.505 818.589 874.358 820.503 876.063C822.417 877.769 823.53 880.178 823.843 883.29H818.921C818.687 881.246 818.088 879.774 817.124 878.876C816.174 877.965 814.774 877.509 812.925 877.509C810.776 877.509 809.123 878.297 807.964 879.872C806.818 881.435 806.232 883.733 806.206 886.767V889.286C806.206 892.359 806.753 894.703 807.847 896.317C808.953 897.932 810.568 898.739 812.69 898.739C814.631 898.739 816.089 898.303 817.065 897.431C818.042 896.558 818.66 895.106 818.921 893.075H823.843ZM826.929 891.571C826.929 889.501 827.339 887.639 828.159 885.985C828.979 884.319 830.132 883.043 831.616 882.157C833.101 881.259 834.806 880.81 836.733 880.81C839.585 880.81 841.896 881.728 843.667 883.563C845.451 885.399 846.414 887.834 846.558 890.868L846.577 891.981C846.577 894.065 846.174 895.927 845.366 897.567C844.572 899.208 843.426 900.478 841.929 901.376C840.444 902.274 838.726 902.724 836.772 902.724C833.791 902.724 831.401 901.734 829.604 899.755C827.821 897.763 826.929 895.113 826.929 891.806V891.571ZM831.675 891.981C831.675 894.156 832.124 895.862 833.022 897.099C833.921 898.323 835.171 898.935 836.772 898.935C838.374 898.935 839.618 898.31 840.503 897.06C841.401 895.81 841.851 893.98 841.851 891.571C841.851 889.436 841.388 887.743 840.464 886.493C839.552 885.243 838.309 884.618 836.733 884.618C835.184 884.618 833.953 885.237 833.042 886.474C832.131 887.698 831.675 889.534 831.675 891.981ZM855.054 881.2L855.19 883.407C856.675 881.675 858.706 880.81 861.284 880.81C864.11 880.81 866.043 881.89 867.085 884.052C868.621 881.89 870.783 880.81 873.569 880.81C875.9 880.81 877.632 881.454 878.765 882.743C879.91 884.032 880.496 885.933 880.522 888.446V902.333H875.776V888.583C875.776 887.242 875.483 886.259 874.897 885.634C874.312 885.009 873.341 884.696 871.987 884.696C870.907 884.696 870.021 884.989 869.331 885.575C868.654 886.148 868.179 886.903 867.905 887.841L867.925 902.333H863.179V888.427C863.114 885.94 861.844 884.696 859.37 884.696C857.469 884.696 856.121 885.471 855.327 887.021V902.333H850.581V881.2H855.054ZM903.901 891.981C903.901 895.25 903.159 897.86 901.675 899.813C900.19 901.754 898.198 902.724 895.698 902.724C893.381 902.724 891.525 901.962 890.132 900.438V910.458H885.386V881.2H889.761L889.956 883.349C891.349 881.656 893.244 880.81 895.64 880.81C898.218 880.81 900.236 881.773 901.694 883.7C903.166 885.614 903.901 888.277 903.901 891.688V891.981ZM899.175 891.571C899.175 889.462 898.752 887.789 897.905 886.552C897.072 885.315 895.874 884.696 894.312 884.696C892.371 884.696 890.978 885.497 890.132 887.099V896.474C890.991 898.114 892.397 898.935 894.351 898.935C895.861 898.935 897.039 898.329 897.886 897.118C898.745 895.894 899.175 894.045 899.175 891.571ZM907.046 891.571C907.046 889.501 907.456 887.639 908.276 885.985C909.097 884.319 910.249 883.043 911.733 882.157C913.218 881.259 914.924 880.81 916.851 880.81C919.702 880.81 922.013 881.728 923.784 883.563C925.568 885.399 926.532 887.834 926.675 890.868L926.694 891.981C926.694 894.065 926.291 895.927 925.483 897.567C924.689 899.208 923.543 900.478 922.046 901.376C920.562 902.274 918.843 902.724 916.89 902.724C913.908 902.724 911.519 901.734 909.722 899.755C907.938 897.763 907.046 895.113 907.046 891.806V891.571ZM911.792 891.981C911.792 894.156 912.241 895.862 913.14 897.099C914.038 898.323 915.288 898.935 916.89 898.935C918.491 898.935 919.735 898.31 920.62 897.06C921.519 895.81 921.968 893.98 921.968 891.571C921.968 889.436 921.506 887.743 920.581 886.493C919.67 885.243 918.426 884.618 916.851 884.618C915.301 884.618 914.071 885.237 913.159 886.474C912.248 887.698 911.792 889.534 911.792 891.981ZM935.112 881.2L935.249 883.642C936.812 881.754 938.862 880.81 941.401 880.81C945.802 880.81 948.042 883.329 948.12 888.368V902.333H943.374V888.642C943.374 887.3 943.081 886.311 942.495 885.673C941.922 885.022 940.978 884.696 939.663 884.696C937.749 884.696 936.323 885.562 935.386 887.294V902.333H930.64V881.2H935.112ZM962.28 902.724C959.272 902.724 956.831 901.78 954.956 899.892C953.094 897.991 952.163 895.465 952.163 892.313V891.728C952.163 889.618 952.567 887.737 953.374 886.083C954.194 884.416 955.34 883.121 956.812 882.196C958.283 881.272 959.924 880.81 961.733 880.81C964.611 880.81 966.831 881.728 968.394 883.563C969.969 885.399 970.757 887.997 970.757 891.356V893.271H956.948C957.091 895.015 957.671 896.396 958.687 897.411C959.715 898.427 961.004 898.935 962.554 898.935C964.728 898.935 966.499 898.056 967.866 896.298L970.425 898.739C969.578 900.002 968.446 900.985 967.026 901.688C965.62 902.379 964.038 902.724 962.28 902.724ZM961.714 884.618C960.412 884.618 959.357 885.074 958.55 885.985C957.756 886.897 957.248 888.166 957.026 889.794H966.069V889.442C965.965 887.854 965.542 886.656 964.8 885.849C964.058 885.028 963.029 884.618 961.714 884.618ZM978.862 881.2L978.999 883.642C980.562 881.754 982.612 880.81 985.151 880.81C989.552 880.81 991.792 883.329 991.87 888.368V902.333H987.124V888.642C987.124 887.3 986.831 886.311 986.245 885.673C985.672 885.022 984.728 884.696 983.413 884.696C981.499 884.696 980.073 885.562 979.136 887.294V902.333H974.39V881.2H978.862ZM1002.67 876.063V881.2H1006.4V884.716H1002.67V896.513C1002.67 897.32 1002.83 897.906 1003.14 898.271C1003.47 898.622 1004.04 898.798 1004.86 898.798C1005.41 898.798 1005.96 898.733 1006.52 898.603V902.274C1005.44 902.574 1004.4 902.724 1003.39 902.724C999.748 902.724 997.925 900.712 997.925 896.688V884.716H994.448V881.2H997.925V876.063H1002.67ZM1021.89 896.591C1021.89 895.744 1021.54 895.1 1020.83 894.657C1020.14 894.215 1018.99 893.824 1017.38 893.485C1015.76 893.147 1014.42 892.717 1013.33 892.196C1010.97 891.05 1009.78 889.39 1009.78 887.216C1009.78 885.393 1010.55 883.869 1012.08 882.646C1013.62 881.422 1015.57 880.81 1017.94 880.81C1020.47 880.81 1022.51 881.435 1024.06 882.685C1025.62 883.935 1026.4 885.556 1026.4 887.548H1021.66C1021.66 886.636 1021.32 885.881 1020.64 885.282C1019.96 884.67 1019.06 884.364 1017.94 884.364C1016.9 884.364 1016.05 884.605 1015.39 885.087C1014.73 885.569 1014.41 886.213 1014.41 887.021C1014.41 887.75 1014.72 888.316 1015.33 888.72C1015.94 889.123 1017.18 889.534 1019.04 889.95C1020.9 890.354 1022.36 890.842 1023.41 891.415C1024.48 891.975 1025.27 892.652 1025.78 893.446C1026.3 894.241 1026.56 895.204 1026.56 896.337C1026.56 898.238 1025.77 899.781 1024.19 900.966C1022.62 902.138 1020.56 902.724 1018 902.724C1016.27 902.724 1014.73 902.411 1013.37 901.786C1012.02 901.161 1010.97 900.302 1010.21 899.208C1009.45 898.114 1009.08 896.936 1009.08 895.673H1013.69C1013.75 896.793 1014.17 897.659 1014.96 898.271C1015.74 898.869 1016.77 899.169 1018.06 899.169C1019.31 899.169 1020.26 898.935 1020.91 898.466C1021.56 897.984 1021.89 897.359 1021.89 896.591Z" fill="white"/>
</g>
<path fill-rule="evenodd" clip-rule="evenodd" d="M1102.62 141.374H661.834V111.612C661.834 105.156 667.202 99.9214 673.823 99.9214H1090.63C1097.25 99.9214 1102.62 105.156 1102.62 111.612V141.374Z" fill="#253368"/>
<path fill-rule="evenodd" clip-rule="evenodd" d="M692.742 119.384C692.742 123.435 689.394 126.72 685.264 126.72C681.135 126.72 677.788 123.435 677.788 119.384C677.788 115.332 681.135 112.047 685.264 112.047C689.394 112.047 692.742 115.332 692.742 119.384Z" fill="#FF7946"/>
<path fill-rule="evenodd" clip-rule="evenodd" d="M720.66 119.384C720.66 123.435 717.313 126.72 713.183 126.72C709.053 126.72 705.706 123.435 705.706 119.384C705.706 115.332 709.053 112.047 713.183 112.047C717.313 112.047 720.66 115.332 720.66 119.384Z" fill="#FAAD14"/>
<path fill-rule="evenodd" clip-rule="evenodd" d="M748.578 119.384C748.578 123.435 745.231 126.72 741.101 126.72C736.972 126.72 733.625 123.435 733.625 119.384C733.625 115.332 736.972 112.047 741.101 112.047C745.231 112.047 748.578 115.332 748.578 119.384Z" fill="#7CB305"/>
<path fill-rule="evenodd" clip-rule="evenodd" d="M674.759 437.86C667.377 437.86 661.391 432.478 661.391 425.84V139.633H1102.77V425.84C1102.77 432.478 1096.78 437.86 1089.4 437.86H674.759Z" fill="#E4EBF7"/>
<path d="M1071.58 161.503H696.558C693.607 161.503 691.214 163.896 691.214 166.847V406.669C691.214 409.621 693.607 412.014 696.558 412.014H1071.58C1074.53 412.014 1076.92 409.621 1076.92 406.669V166.847C1076.92 163.896 1074.53 161.503 1071.58 161.503Z" fill="white"/>
<path d="M1023.24 215.184H832.375C830.179 215.184 828.398 216.964 828.398 219.16V239.042C828.398 241.238 830.179 243.018 832.375 243.018H1023.24C1025.44 243.018 1027.22 241.238 1027.22 239.042V219.16C1027.22 216.964 1025.44 215.184 1023.24 215.184Z" fill="#FAAD14"/>
<path d="M1023.24 312.604H951.666C949.47 312.604 947.689 314.384 947.689 316.58V336.462C947.689 338.658 949.47 340.439 951.666 340.439H1023.24C1025.44 340.439 1027.22 338.658 1027.22 336.462V316.58C1027.22 314.384 1025.44 312.604 1023.24 312.604Z" fill="#FF7946"/>
<path d="M1023.24 268.865H951.666C949.47 268.865 947.689 270.645 947.689 272.841V292.723C947.689 294.919 949.47 296.699 951.666 296.699H1023.24C1025.44 296.699 1027.22 294.919 1027.22 292.723V272.841C1027.22 270.645 1025.44 268.865 1023.24 268.865Z" fill="#597EF7"/>
<path fill-rule="evenodd" clip-rule="evenodd" d="M779.204 217.172H800.053L846.292 338.451H826.619L815.354 307.197H763.735L752.47 338.451H732.965L779.204 217.172ZM768.753 292.723H808.516L789.047 239.042H788.387L768.753 292.723ZM891.378 264.888C900.741 264.888 907.641 267.383 912.076 272.374C915.895 276.708 917.866 283.012 917.866 291.285V334.624H905.793V325.037C903.329 328.452 900.249 331.209 896.553 333.179C892.364 335.281 887.436 336.463 881.769 336.463C875.116 336.463 869.942 334.624 866.246 331.078C862.18 327.532 860.209 322.936 860.209 317.289C860.209 309.671 863.042 303.762 868.71 299.69C873.884 295.751 881.276 293.781 890.639 293.518L904.93 293.124V290.366C904.93 280.91 900.125 276.182 890.516 276.182C886.45 276.182 883.124 276.97 880.66 278.546C877.703 280.385 875.855 283.143 875.116 286.951L862.18 285.77C863.535 278.415 866.985 272.899 872.406 269.485C877.087 266.333 883.493 264.888 891.378 264.888ZM907.925 304.652L894.274 305.033C882.126 305.288 876.114 309.611 876.114 317.748C876.114 320.291 877.116 322.326 879.245 323.979C881.249 325.632 884.004 326.522 887.386 326.522C893.022 326.522 897.781 324.742 901.788 321.309C905.796 317.875 907.925 313.552 907.925 308.466V304.652Z" fill="#253368"/>
<path d="M1027.97 366.285C1028.52 366.285 1028.97 366.73 1028.97 367.279C1028.97 367.803 1028.56 368.233 1028.05 368.271L1027.97 368.273H858.221C857.672 368.273 857.227 367.828 857.227 367.279C857.227 366.755 857.633 366.326 858.147 366.288L858.221 366.285H1027.97Z" fill="#253368"/>
<path d="M750.303 373.291V366.134H752.625V365.068H750.303V364.161C750.303 363.764 750.382 363.477 750.541 363.302C750.7 363.112 750.971 363.032 751.32 363.032H752.736V361.935H751.161C750.462 361.935 749.921 362.125 749.555 362.523C749.205 362.905 749.03 363.43 749.03 364.13V365.068H746.962V366.134H749.03V373.291H750.303ZM757.476 373.514C758.701 373.514 759.687 373.084 760.434 372.225C761.118 371.43 761.468 370.412 761.468 369.187C761.468 367.947 761.118 366.929 760.418 366.118C759.687 365.259 758.701 364.845 757.476 364.845C756.235 364.845 755.265 365.259 754.533 366.118C753.834 366.929 753.484 367.947 753.484 369.187C753.484 370.412 753.834 371.43 754.533 372.225C755.265 373.084 756.235 373.514 757.476 373.514ZM757.476 372.448C756.601 372.448 755.917 372.114 755.44 371.446C754.995 370.842 754.788 370.094 754.788 369.187C754.788 368.265 754.995 367.517 755.44 366.913C755.917 366.245 756.601 365.911 757.476 365.911C758.335 365.911 759.019 366.245 759.528 366.913C759.957 367.517 760.18 368.265 760.18 369.187C760.18 370.078 759.957 370.842 759.528 371.446C759.019 372.114 758.335 372.448 757.476 372.448ZM764.395 373.291V368.329C764.442 367.581 764.681 366.992 765.126 366.547C765.54 366.134 766.033 365.927 766.606 365.927C768.037 365.927 768.769 366.722 768.769 368.329V373.291H770.041V368.233C770.041 365.975 769.007 364.845 766.971 364.845C766.431 364.845 765.938 364.973 765.492 365.227C765.047 365.466 764.681 365.816 764.395 366.277V365.068H763.122V373.291H764.395ZM776.038 373.291V372.225H774.988C774.701 372.225 774.495 372.146 774.383 372.019C774.256 371.891 774.208 371.669 774.208 371.367V366.134H776.244V365.068H774.208V362.412L772.952 362.937V365.068H771.298V366.134H772.952V371.367C772.952 371.987 773.079 372.448 773.35 372.766C773.636 373.116 774.129 373.291 774.797 373.291H776.038ZM786.376 373.514C787.617 373.514 788.539 372.989 789.112 371.939V373.291H790.305V361.712H789.032V366.579C788.396 365.418 787.489 364.845 786.312 364.845C785.135 364.845 784.229 365.275 783.561 366.165C782.94 366.961 782.638 367.947 782.638 369.156C782.638 370.396 782.94 371.414 783.561 372.209C784.229 373.068 785.167 373.514 786.376 373.514ZM786.535 372.464C785.644 372.464 784.976 372.13 784.531 371.494C784.133 370.921 783.943 370.142 783.943 369.156C783.943 368.17 784.133 367.406 784.547 366.849C784.992 366.213 785.676 365.895 786.583 365.895C787.314 365.895 787.919 366.181 788.38 366.786C788.826 367.374 789.064 368.154 789.064 369.108V369.267C789.064 370.189 788.857 370.937 788.46 371.51C787.998 372.146 787.362 372.464 786.535 372.464ZM795.713 373.514C796.778 373.514 797.653 373.196 798.337 372.591C798.894 372.082 799.259 371.446 799.45 370.651H798.178C797.971 371.223 797.701 371.653 797.351 371.939C796.937 372.273 796.381 372.448 795.713 372.448C794.933 372.448 794.313 372.194 793.868 371.685C793.422 371.176 793.184 370.46 793.12 369.537H799.609C799.578 368.106 799.259 366.977 798.655 366.181C797.987 365.291 796.985 364.845 795.665 364.845C794.472 364.845 793.534 365.275 792.834 366.134C792.134 366.945 791.8 367.963 791.8 369.172C791.8 370.508 792.15 371.557 792.881 372.353C793.581 373.116 794.536 373.514 795.713 373.514ZM798.289 368.551H793.152C793.231 367.74 793.486 367.104 793.931 366.627C794.376 366.15 794.965 365.911 795.697 365.911C797.255 365.911 798.13 366.786 798.289 368.551ZM804.158 373.514C806.481 373.514 807.642 372.655 807.642 370.969C807.642 370.253 807.308 369.696 806.655 369.283C806.226 369.012 805.526 368.758 804.54 368.519C803.713 368.297 803.14 368.122 802.838 367.979C802.361 367.74 802.138 367.438 802.138 367.088C802.138 366.722 802.313 366.436 802.663 366.229C802.981 366.006 803.427 365.911 803.999 365.911C804.651 365.911 805.16 366.038 805.51 366.293C805.828 366.515 806.035 366.897 806.147 367.406H807.387C807.164 365.688 806.051 364.845 804.015 364.845C803.093 364.845 802.329 365.052 801.757 365.466C801.136 365.879 800.834 366.42 800.834 367.12C800.834 367.82 801.136 368.344 801.773 368.726C802.154 368.981 802.838 369.219 803.808 369.458C804.699 369.681 805.288 369.855 805.558 369.983C806.067 370.237 806.337 370.587 806.337 371.048C806.337 371.971 805.59 372.448 804.127 372.448C803.427 372.448 802.902 372.321 802.552 372.066C802.202 371.78 801.963 371.319 801.868 370.667H800.627C800.818 372.559 801.995 373.514 804.158 373.514ZM810.187 363.859C810.457 363.859 810.68 363.764 810.87 363.589C811.061 363.398 811.157 363.175 811.157 362.905C811.157 362.619 811.061 362.396 810.87 362.237C810.68 362.046 810.457 361.966 810.187 361.966C809.916 361.966 809.693 362.046 809.503 362.237C809.312 362.396 809.232 362.619 809.232 362.905C809.232 363.175 809.312 363.398 809.503 363.589C809.693 363.764 809.916 363.859 810.187 363.859ZM810.823 373.291V365.068H809.55V373.291H810.823ZM816.883 376.663C819.38 376.663 820.636 375.343 820.636 372.718V365.068H819.364V366.484C818.76 365.386 817.837 364.845 816.596 364.845C815.451 364.845 814.545 365.243 813.877 366.054C813.209 366.818 812.89 367.788 812.89 368.997C812.89 370.19 813.209 371.16 813.877 371.923C814.545 372.703 815.451 373.1 816.596 373.1C817.837 373.1 818.76 372.544 819.364 371.446V372.893C819.364 374.707 818.537 375.629 816.883 375.629C816.135 375.629 815.578 375.486 815.213 375.216C814.847 374.961 814.608 374.548 814.513 373.991H813.24C813.383 374.882 813.749 375.55 814.338 375.995C814.91 376.44 815.769 376.663 816.883 376.663ZM816.771 372.035C815.881 372.035 815.229 371.716 814.783 371.112C814.386 370.571 814.195 369.855 814.195 368.997C814.195 368.074 814.417 367.327 814.863 366.786C815.324 366.181 815.96 365.895 816.787 365.895C817.598 365.895 818.235 366.181 818.712 366.786C819.157 367.327 819.38 368.074 819.38 368.997C819.38 369.887 819.157 370.619 818.712 371.176C818.235 371.748 817.598 372.035 816.771 372.035ZM823.881 373.291V368.329C823.929 367.581 824.167 366.992 824.613 366.547C825.026 366.134 825.519 365.927 826.092 365.927C827.523 365.927 828.255 366.722 828.255 368.329V373.291H829.528V368.233C829.528 365.975 828.494 364.845 826.458 364.845C825.917 364.845 825.424 364.973 824.979 365.227C824.533 365.466 824.167 365.816 823.881 366.277V365.068H822.609V373.291H823.881Z" fill="#253368"/>
<path d="M955.297 476.736H951.606C942.61 476.736 935.316 484.029 935.316 493.026L935.316 496.717C935.316 505.713 942.61 513.006 951.606 513.006H955.297C964.293 513.006 971.586 505.713 971.586 496.717V493.026C971.586 484.029 964.293 476.736 955.297 476.736Z" fill="#597EF7"/>
<path d="M949.061 563.084C949.061 568.882 953.761 573.583 959.56 573.583C965.358 573.583 970.059 568.882 970.059 563.084C970.059 557.285 965.358 552.584 959.56 552.584C953.761 552.584 949.061 557.285 949.061 563.084Z" fill="#597EF7"/>
<path d="M870.857 550.167L870.857 549.531C870.857 543.556 875.701 538.713 881.675 538.713C887.649 538.713 892.492 543.556 892.492 549.531V550.167C892.492 556.141 887.649 560.984 881.675 560.984C875.701 560.984 870.857 556.141 870.857 550.167Z" fill="#597EF7"/>
<path d="M56.7777 590.628L14.3103 592.054L20.8486 611.193C25.2662 623.642 34.1772 631.315 45.928 633.478C50.1665 634.112 53.5282 633.906 56.629 633.372C53.6799 634.33 48.6343 636.454 46.7077 640.183C43.9164 645.596 43.7404 649.661 44.0226 658.23L45.7581 672.829C45.7581 672.829 76.0741 660.132 76.0074 659.304C80.4462 656.54 85.9802 652.541 89.5028 647.571C92.1515 643.839 93.6655 639.552 92.7279 634.825C98.7384 628.041 97.8919 624.412 90.1854 623.936C89.4573 623.893 88.6987 623.887 87.916 623.921C87.7916 621.821 87.6277 619.327 87.4335 616.439C86.3231 608.605 82.4699 601.478 76.7204 596.639C71.8872 592.57 66.0436 590.392 60.1333 590.392C59.0138 590.392 57.8942 590.47 56.7777 590.628Z" fill="url(#paint0_linear)"/>
<path d="M78.3709 628.502C64.2414 632.495 62.0993 637.589 60.5702 643.633C59.035 649.674 61.3074 664.85 62.4088 669.343C62.4088 669.343 80.7313 664.816 94.5514 655.241C102.91 647.796 101.281 644.458 100.923 633.384C100.113 622.877 99.0266 615.35 97.6673 610.808C98.9598 617.152 92.5246 623.05 78.3709 628.502Z" fill="url(#paint1_linear)"/>
<path d="M38.3123 605.31C42.0806 621.558 49.4745 628.524 63.0488 629.983C66.3498 631.215 90.522 629.95 100.255 644.188C101.102 643.84 100.574 634.152 98.6805 615.128C96.4292 605.413 95.3885 599.142 89.9546 593.493C84.5206 587.84 73.1278 584.576 66.1374 583.484L34.2861 579.406L38.3123 605.31Z" fill="url(#paint2_linear)"/>
<path d="M77.5003 628.77C76.314 629.094 75.3886 629.428 75.1003 629.522C73.556 630.038 72.0208 630.663 71.3806 630.985C86.9331 633.749 96.8544 638.239 101.144 644.459C101.466 643.776 101.123 638.178 101.044 635.46C100.24 623.742 99.0662 615.49 97.625 610.678C98.1954 617.095 92.8646 623.269 77.5003 628.77Z" fill="#FFB511"/>
<path d="M195.375 457.665L213.201 458.264L210.456 466.297C208.602 471.523 204.861 474.744 199.929 475.652C198.15 475.918 196.739 475.831 195.437 475.607C196.675 476.01 198.793 476.901 199.602 478.466C200.773 480.738 200.847 482.445 200.729 486.041L200 492.17C200 492.17 187.275 486.84 187.303 486.492C185.44 485.332 183.117 483.654 181.638 481.567C180.526 480.001 179.891 478.201 180.284 476.217C177.761 473.37 178.117 471.846 181.351 471.646C181.657 471.629 181.976 471.626 182.304 471.64C182.356 470.759 182.425 469.712 182.507 468.499C182.973 465.211 184.59 462.22 187.004 460.188C189.032 458.48 191.485 457.566 193.966 457.566C194.436 457.566 194.906 457.599 195.375 457.665Z" fill="url(#paint3_linear)"/>
<path d="M186.311 473.564C192.242 475.24 193.141 477.378 193.783 479.915C194.427 482.451 193.473 488.821 193.011 490.707C193.011 490.707 185.32 488.807 179.519 484.788C176.01 481.662 176.694 480.261 176.844 475.613C177.184 471.202 177.64 468.043 178.211 466.136C177.668 468.799 180.369 471.275 186.311 473.564Z" fill="url(#paint4_linear)"/>
<path d="M203.125 463.829C201.544 470.649 198.44 473.573 192.742 474.185C191.356 474.702 181.21 474.171 177.124 480.148C176.769 480.002 176.991 475.935 177.785 467.95C178.73 463.872 179.167 461.24 181.448 458.868C183.729 456.496 188.511 455.125 191.446 454.667L204.815 452.955L203.125 463.829Z" fill="url(#paint5_linear)"/>
<path d="M186.676 473.676C187.174 473.812 187.562 473.952 187.683 473.992C188.332 474.208 188.976 474.47 189.245 474.605C182.717 475.766 178.552 477.651 176.751 480.261C176.616 479.975 176.76 477.625 176.793 476.484C177.131 471.565 177.624 468.101 178.229 466.082C177.989 468.775 180.227 471.367 186.676 473.676Z" fill="#FFB511"/>
<path fill-rule="evenodd" clip-rule="evenodd" d="M155.482 490.689C104.544 466.708 74.1854 529.602 99.8028 564.62C131.064 607.353 147.078 656.524 155.996 671.338C163.519 683.835 184.125 714.303 208.939 700.26C231.776 687.336 219.329 636.612 219.329 636.612C219.329 636.612 218.321 520.274 155.482 490.689Z" fill="#5B8C00"/>
<path fill-rule="evenodd" clip-rule="evenodd" d="M308.694 690.494C326.011 667.24 332.334 633.869 313.005 625.311C294.473 617.107 263.775 637.308 249.557 676.186C235.338 715.063 227.135 743.015 241.043 747.875C263.863 755.849 285.821 721.208 308.694 690.494Z" fill="#5B8C00"/>
<path fill-rule="evenodd" clip-rule="evenodd" d="M126.637 692.26C146.224 715.106 174.488 761.064 192.195 744.968C202.927 735.213 188.58 689.017 149.309 663.883C115.904 642.503 107.05 669.414 126.637 692.26Z" fill="#7CB305"/>
<path fill-rule="evenodd" clip-rule="evenodd" d="M314.062 533.722C306.614 528.734 297.244 527.595 288.694 530.32C276.762 534.124 258.655 545.45 240.735 577.959C217.338 620.403 205.158 666.933 207.566 696.407C209.14 715.682 232.997 723.991 246.344 709.938C252.474 703.483 258.959 693.534 265.305 678.44C290.842 617.7 314.717 579.637 317.564 575.815C325.161 565.617 330.593 544.792 314.062 533.722Z" fill="#7CB305"/>
<path fill-rule="evenodd" clip-rule="evenodd" d="M296.935 557.949C296.683 560.948 298.92 563.583 301.933 563.834C304.947 564.086 307.594 561.859 307.847 558.86C308.099 555.861 305.862 553.226 302.848 552.974C299.836 552.723 297.188 554.95 296.935 557.949Z" fill="white"/>
<path fill-rule="evenodd" clip-rule="evenodd" d="M250.433 581.215C250.18 584.213 252.418 586.849 255.431 587.1C258.444 587.352 261.092 585.125 261.345 582.125C261.597 579.127 259.359 576.492 256.346 576.24C253.333 575.989 250.686 578.216 250.433 581.215Z" fill="white"/>
<path fill-rule="evenodd" clip-rule="evenodd" d="M258.227 643.16C257.937 646.595 260.5 649.612 263.951 649.9C267.401 650.189 270.433 647.638 270.722 644.203C271.012 640.769 268.449 637.752 264.999 637.463C261.548 637.175 258.517 639.726 258.227 643.16Z" fill="white"/>
<path fill-rule="evenodd" clip-rule="evenodd" d="M115.395 550.585C115.395 555.459 119.365 559.411 124.262 559.411C129.159 559.411 133.129 555.459 133.129 550.585C133.129 545.711 129.159 541.76 124.262 541.76C119.365 541.76 115.395 545.711 115.395 550.585Z" fill="white"/>
<path fill-rule="evenodd" clip-rule="evenodd" d="M186.775 577.535C186.775 582.409 190.744 586.36 195.641 586.36C200.538 586.36 204.508 582.409 204.508 577.535C204.508 572.661 200.538 568.71 195.641 568.71C190.744 568.71 186.775 572.661 186.775 577.535Z" fill="white"/>
<path fill-rule="evenodd" clip-rule="evenodd" d="M163.657 637.441C163.657 639.478 165.316 641.13 167.363 641.13C169.409 641.13 171.069 639.478 171.069 637.441C171.069 635.404 169.409 633.752 167.363 633.752C165.316 633.752 163.657 635.404 163.657 637.441Z" fill="white"/>
<path fill-rule="evenodd" clip-rule="evenodd" d="M136.958 684.615C136.958 687.624 139.409 690.064 142.432 690.064C145.456 690.064 147.907 687.624 147.907 684.615C147.907 681.605 145.456 679.166 142.432 679.166C139.409 679.166 136.958 681.605 136.958 684.615Z" fill="white"/>
<path d="M264.833 696.701C264.322 696.217 263.514 696.236 263.028 696.744L262.794 696.994L262.617 697.189C262.296 697.547 261.924 697.974 261.506 698.469C260.32 699.878 259 701.56 257.581 703.516C253.538 709.089 249.498 715.737 245.73 723.451C234.977 745.465 228.528 771.612 228.528 801.797C228.528 802.499 229.1 803.068 229.805 803.068C230.51 803.068 231.081 802.499 231.081 801.797C231.081 772.011 237.437 746.241 248.026 724.562C251.728 716.984 255.691 710.461 259.651 705.004C260.952 703.211 262.164 701.658 263.259 700.345L263.463 700.102C263.773 699.733 264.056 699.406 264.309 699.12L264.629 698.763C264.748 698.633 264.831 698.544 264.875 698.497C265.362 697.99 265.343 697.185 264.833 696.701Z" fill="#253368"/>
<path d="M168.385 705.595C167.964 705.032 167.164 704.917 166.599 705.337C166.034 705.756 165.918 706.553 166.34 707.115C170.989 713.313 175.28 719.978 179.226 727.042C187.568 741.976 194.017 757.987 198.804 773.999C200.479 779.603 201.827 784.805 202.876 789.472L203.088 790.428C203.339 791.57 203.555 792.611 203.739 793.544L203.858 794.155L204.07 795.307C204.187 795.999 204.846 796.466 205.541 796.349C206.236 796.233 206.705 795.577 206.588 794.885L206.515 794.476C206.455 794.146 206.382 793.757 206.295 793.311L206.084 792.254C205.879 791.245 205.64 790.131 205.368 788.917L205.135 787.897C204.11 783.442 202.823 778.532 201.251 773.274C196.415 757.096 189.898 740.917 181.458 725.807C177.458 718.647 173.106 711.887 168.385 705.595Z" fill="#253368"/>
<path d="M146.077 547.067C145.588 547.533 145.553 548.293 145.982 548.801L146.038 548.863C146.063 548.889 146.117 548.946 146.199 549.034L146.513 549.375L146.696 549.577C147.245 550.186 147.884 550.92 148.605 551.779C150.672 554.24 152.978 557.202 155.464 560.666C162.579 570.58 169.697 582.52 176.344 596.499C187.411 619.773 196.03 646.318 201.254 676.16C207.597 712.396 208.648 751.981 203.456 794.944C203.371 795.641 203.871 796.274 204.571 796.358C205.271 796.441 205.906 795.945 205.991 795.248C211.213 752.039 210.156 712.204 203.77 675.723C198.505 645.652 189.815 618.888 178.652 595.412C171.939 581.293 164.742 569.223 157.542 559.189L156.984 558.416C154.764 555.356 152.689 552.694 150.799 550.43L150.564 550.149C149.885 549.341 149.276 548.638 148.74 548.04L148.596 547.88C148.429 547.694 148.28 547.531 148.148 547.389L147.882 547.105C147.394 546.598 146.586 546.581 146.077 547.067Z" fill="#253368"/>
<path d="M256.578 622.417C255.975 622.054 255.19 622.245 254.824 622.845L254.696 623.06C254.594 623.232 254.474 623.437 254.336 623.674L254.136 624.023C253.794 624.622 253.409 625.311 252.985 626.087L252.634 626.734C251.336 629.14 249.913 631.924 248.393 635.077L248.186 635.509C243.23 645.843 238.277 657.927 233.655 671.659C220.715 710.108 212.842 753.747 212.548 801.79C212.543 802.491 213.111 803.064 213.816 803.068C214.521 803.072 215.096 802.507 215.101 801.805C215.394 754.044 223.218 710.669 236.076 672.466C240.581 659.083 245.4 647.283 250.222 637.164L250.49 636.604C252.138 633.166 253.673 630.167 255.057 627.617L255.473 626.854C255.873 626.128 256.233 625.49 256.55 624.941L256.7 624.682L257.008 624.162C257.373 623.562 257.181 622.781 256.578 622.417Z" fill="#253368"/>
<path fill-rule="evenodd" clip-rule="evenodd" d="M158.326 864.825H268.674C274.639 864.825 279.52 859.967 279.52 854.03V773.903C279.52 767.965 274.639 763.108 268.674 763.108H158.326C152.361 763.108 147.48 767.965 147.48 773.903V854.03C147.48 859.967 152.361 864.825 158.326 864.825Z" fill="#253368"/>
<rect x="-3" y="37" width="1344" height="907" rx="32.5792" fill="#F3F6FE" fill-opacity="0.05"/>
<path fill-rule="evenodd" clip-rule="evenodd" d="M582.962 379.54C582.962 379.54 629.823 364.908 650.615 413.578C699.808 423.043 695.244 475.768 695.244 475.768C695.244 475.768 724.966 511.858 681.849 539.674C684.668 581.075 637.095 581.075 637.095 581.075C637.095 581.075 631.011 614.382 593.681 607.036C560.377 642.691 487.752 648.222 456.514 616.138C412.074 661.868 316.904 629.946 322.418 593.807C262.91 599.664 224.334 541.74 250.376 483.135C217.13 445.392 243.4 415.774 243.4 415.774C243.4 415.774 219.618 320.666 284.33 296.999C310.341 239.578 391.232 269.443 391.232 269.443C391.232 269.443 438.766 251.377 463.221 291.218C519.514 290.878 521.769 321.482 530.049 346.153C579.663 341.075 582.962 379.54 582.962 379.54Z" fill="#253368"/>
<path fill-rule="evenodd" clip-rule="evenodd" d="M422.981 356.828C385.543 369.748 369.171 342.478 369.171 342.478C369.171 342.478 346.707 303.982 346.671 329.831C346.649 343.567 323.095 329.11 315.859 344.907C310.991 355.537 328.99 365.352 312.273 394.298C302.585 411.063 352.055 415.294 327.08 447.337C327.08 447.337 353.297 477.386 319.19 494.008L321.656 533.759C323.09 556.893 344.174 573.743 367.069 570.046C388.892 566.523 403.493 545.671 399.342 523.962L390.251 476.467C445.912 467.567 436.39 390.655 422.981 356.828Z" fill="#FFC999"/>
<path fill-rule="evenodd" clip-rule="evenodd" d="M744.321 536.857L772.564 437.081C772.564 437.081 818.819 356.122 835.523 361.101C851.039 367.89 815.968 391.064 809.015 413.938C823.782 412.88 817.076 434.84 817.076 434.84C817.076 434.84 828.83 434.414 825.669 452.304C836.586 458.762 827.835 479.297 827.835 479.297C827.835 479.297 805.904 533.384 781.606 569.46C781.606 569.46 741.295 600.58 744.321 536.857Z" fill="#FFC999"/>
<path fill-rule="evenodd" clip-rule="evenodd" d="M750.596 503.145C750.596 503.145 754.81 468.924 757.962 451.496C761.113 434.062 753.748 402.58 766.466 410.92C775.015 416.531 773.527 435.259 773.217 449.071C772.913 462.879 795.225 495.612 778.597 518.27C767.363 533.584 749.65 535.591 750.596 503.145Z" fill="#FFC999"/>
<path fill-rule="evenodd" clip-rule="evenodd" d="M776.527 530.065C764.947 522.37 749.359 525.145 741.146 536.362L582.582 752.874C568.667 773.251 574.096 801.068 594.655 814.723C615.393 828.495 643.408 822.485 656.664 801.418L785.013 564.085C791.41 552.258 787.73 537.509 776.527 530.065Z" fill="#FFC999"/>
<path d="M358.482 408.892C359.292 407.774 360.856 407.523 361.975 408.333L362.291 408.547C362.501 408.683 362.787 408.86 363.147 409.07C364.179 409.67 365.38 410.275 366.733 410.842C373.01 413.469 380.039 414.337 387.438 412.407C388.775 412.059 390.141 412.859 390.49 414.196C390.839 415.532 390.038 416.898 388.701 417.247C380.14 419.479 372.02 418.477 364.801 415.455C362.111 414.329 360.151 413.188 359.041 412.384C357.922 411.574 357.672 410.011 358.482 408.892Z" fill="#F5222D"/>
<path d="M356.786 369.31C358.099 369.101 359.333 369.995 359.543 371.307C361.001 380.438 355.323 389.015 346.732 390.394C338.144 391.762 330.07 385.381 328.612 376.252C328.402 374.939 329.297 373.705 330.61 373.496C331.923 373.286 333.157 374.18 333.367 375.493C334.419 382.082 340.105 386.576 345.971 385.641C351.842 384.699 355.841 378.658 354.788 372.066C354.579 370.753 355.473 369.52 356.786 369.31Z" fill="#253368"/>
<path d="M417.023 361.351C418.269 361.151 419.44 361.999 419.64 363.244C421.086 372.266 416.101 380.724 408.245 381.98C400.391 383.236 393.016 376.757 391.571 367.736C391.371 366.49 392.219 365.319 393.465 365.12C394.71 364.92 395.882 365.768 396.081 367.013C397.155 373.714 402.369 378.295 407.524 377.471C412.678 376.647 416.203 370.666 415.129 363.967C414.929 362.721 415.777 361.55 417.023 361.351Z" fill="#253368"/>
<path d="M331.697 345.074C339.6 342.012 347.941 341.862 355.696 343.425L356.943 343.693C358.101 343.959 358.985 344.212 359.552 344.405C360.811 344.831 361.486 346.198 361.059 347.457C360.632 348.715 359.265 349.39 358.006 348.963L357.476 348.797C356.846 348.614 355.92 348.38 354.744 348.143C347.812 346.746 340.358 346.88 333.436 349.562C330.211 350.811 327.227 352.586 324.524 354.942C323.521 355.816 322.001 355.711 321.127 354.71C320.253 353.708 320.357 352.188 321.36 351.314C324.493 348.583 327.96 346.521 331.697 345.074Z" fill="#253368"/>
<path fill-rule="evenodd" clip-rule="evenodd" d="M646.729 810.951C667.181 796.699 672.197 768.573 657.937 748.128L519.008 548.929C504.747 528.489 476.616 523.469 456.165 537.721C435.718 551.972 430.701 580.098 444.957 600.543L583.891 799.742C598.147 820.187 626.278 825.202 646.729 810.951Z" fill="#FFC999"/>
<path d="M443.071 600.119C443.645 599.718 444.411 599.799 444.891 600.276L445.056 600.472L503.124 683.73L575.447 632.157C576.017 631.751 576.783 631.823 577.268 632.294L577.435 632.489C577.842 633.059 577.769 633.825 577.298 634.31L577.103 634.477L503.608 686.889C503.034 687.298 502.261 687.221 501.777 686.742L501.611 686.544L442.717 602.103C442.267 601.457 442.425 600.569 443.071 600.119Z" fill="#4E5C93"/>
<path fill-rule="evenodd" clip-rule="evenodd" d="M503.852 684.987L444.955 600.541C430.757 580.186 435.8 551.916 456.167 537.723C476.529 523.53 504.807 528.572 519.005 548.932L577.343 632.571L503.852 684.987Z" fill="#597EF7"/>
<path fill-rule="evenodd" clip-rule="evenodd" d="M484.045 610.884C493.688 631.889 511.553 668.046 513.772 691.933C517.376 730.662 492.155 759.478 492.155 759.478C492.155 759.478 491.899 748.091 489.451 848.428C373.915 868.689 300.25 847.146 300.25 847.146L302.5 820.548L283.739 757.677C283.739 757.677 272.339 734.261 248.915 682.028C232.633 645.715 233.762 600.698 235.968 576.627C236.914 566.315 232.014 544.786 242.249 543.177C277.023 537.71 301.155 534.765 301.155 534.765L305.387 521.764C305.952 517.83 309.324 514.908 313.3 514.908H402.709C406.359 514.908 409.542 517.377 410.447 520.913L416.714 534.765L463.835 536.446C472.089 538.064 479.226 563.913 480.086 572.276L484.045 610.884Z" fill="#597EF7"/>
<path d="M300.023 538.317C300.751 537.74 301.776 537.792 302.442 538.397L302.649 538.62L383.374 640.371L414.704 545.456C414.995 544.574 415.88 544.055 416.769 544.195L417.065 544.267C417.947 544.558 418.467 545.443 418.326 546.332L418.254 546.627L385.842 644.835C385.407 646.154 383.767 646.528 382.798 645.624L382.602 645.411L299.72 540.942C299.078 540.134 299.214 538.958 300.023 538.317Z" fill="#CCD7EE"/>
<path fill-rule="evenodd" clip-rule="evenodd" d="M407.205 652.15C415.687 666.446 411.863 684.377 398.669 692.201C385.476 700.022 367.902 694.769 359.425 680.473C350.943 666.173 354.763 648.242 367.961 640.422C381.154 632.602 398.723 637.854 407.205 652.15Z" fill="#CCD7EE"/>
<path fill-rule="evenodd" clip-rule="evenodd" d="M410.252 652.079C418.734 666.375 414.91 684.306 401.717 692.126C388.523 699.951 370.95 694.698 362.468 680.398C353.99 666.102 357.81 648.171 371.008 640.351C384.197 632.531 401.77 637.783 410.252 652.079Z" fill="#E4EBF7"/>
<path fill-rule="evenodd" clip-rule="evenodd" d="M404.868 654.57C411.453 665.67 408.485 679.59 398.237 685.662C387.994 691.735 374.352 687.661 367.771 676.56C361.185 665.46 364.148 651.54 374.396 645.468C384.64 639.391 398.282 643.469 404.868 654.57Z" fill="#FAAD14"/>
<path d="M236.008 575.2C236.796 575.224 237.416 575.88 237.393 576.666L237.269 582.333L237.25 583.415C237.057 594.705 237.037 606.635 237.301 617.799L237.386 621.013C237.74 633.127 238.435 642.865 239.526 649.414C240.766 656.84 245.524 669.456 252.897 685.715C254.186 688.556 255.543 691.482 256.96 694.48C260.865 702.74 265.049 711.177 269.234 719.338L271.348 723.436L274.748 729.924L274.906 730.248L305.206 820.56L305.274 821.153L302.694 847.363L304.937 847.803C305.577 847.924 306.256 848.05 306.975 848.18L308.083 848.378C313.504 849.336 319.786 850.294 326.854 851.189C375.109 857.299 429.729 857.33 485.996 847.294L488.288 846.876L488.482 839.584C488.625 834.81 488.841 828.25 489.119 820.162L490.228 788.895L491.192 762.584L491.369 761.947L492.06 760.664L493.164 758.547C493.476 757.939 493.8 757.3 494.135 756.632L494.645 755.608C497.109 750.628 499.575 745.227 501.875 739.599C505.145 731.596 507.804 723.807 509.634 716.492C511.404 709.419 512.347 702.984 512.347 697.341C512.347 683.215 510.473 672.373 506.268 661.19C504.162 655.591 501.459 649.811 497.564 642.432L495.626 638.823C493.008 634.022 487.951 624.906 485.025 619.636L482.796 615.621L482.621 614.988L481.72 591.124C481.69 590.338 482.304 589.676 483.09 589.646C483.79 589.62 484.39 590.102 484.536 590.761L484.569 591.017L485.455 614.539L497.136 635.642L499.284 639.593L500.863 642.583C504.398 649.365 506.927 654.844 508.937 660.188C513.265 671.699 515.198 682.88 515.198 697.341C515.198 703.243 514.222 709.901 512.4 717.183C510.534 724.644 507.833 732.557 504.514 740.677C502.519 745.558 500.403 750.269 498.268 754.688L497.2 756.872C496.676 757.931 496.175 758.925 495.7 759.85L494.027 763.027L491.696 828.316C491.353 838.585 491.153 845.331 491.131 847.676L491.128 848.068C491.128 848.755 490.638 849.344 489.963 849.469C432.162 860.19 376.008 860.286 326.496 854.017C320.092 853.206 314.326 852.343 309.252 851.474L307.586 851.185C306.437 850.981 305.376 850.787 304.404 850.603L300.845 849.89C300.228 849.754 299.785 849.234 299.731 848.625L299.733 848.359L302.404 821.173L272.297 731.374L270.755 728.46C269.531 726.129 268.166 723.503 266.697 720.638C262.499 712.452 258.301 703.988 254.382 695.698L252.293 691.236C251.953 690.502 251.617 689.773 251.284 689.049L250.301 686.892C242.825 670.408 238.008 657.635 236.714 649.882C235.5 642.597 234.775 631.603 234.45 617.866C234.223 608.259 234.206 598.095 234.327 588.255L234.438 581.24L234.543 576.586C234.565 575.799 235.221 575.18 236.008 575.2Z" fill="#4E5C93"/>
<path fill-rule="evenodd" clip-rule="evenodd" d="M150.926 844.549L149.64 844.052C126.758 835.169 115.412 809.427 124.293 786.553L209.026 568.375C217.912 545.501 243.667 534.158 266.548 543.041L267.834 543.538C290.716 552.42 302.062 578.162 293.177 601.041L208.448 819.21C199.563 842.089 173.808 853.431 150.926 844.549Z" fill="#FFC999"/>
<path fill-rule="evenodd" clip-rule="evenodd" d="M302.06 868.419C261.466 871.596 141.76 1124.87 105.363 1216.57C110.209 1235.03 163.171 1270.78 163.171 1270.78C163.171 1270.78 160.006 1285.48 158.052 1294.31C192.692 1322.79 259.686 1338.26 259.686 1338.26L259.834 1350.9C366.947 1400.2 510.381 1352.95 510.381 1352.95C510.381 1352.95 513.058 1350.21 511.139 1340.3C559.771 1339.74 663.907 1278.06 663.907 1278.06L649.104 1247.54L691.935 1203.72C691.935 1203.72 576.273 991.015 540.673 931.519C509.418 879.291 480.103 864.251 480.103 864.251C480.103 864.251 374.084 862.781 302.06 868.419Z" fill="#4E5C93"/>
<path fill-rule="evenodd" clip-rule="evenodd" d="M487.858 868.414L484.801 845.218C484.801 845.218 393.186 845.765 303.333 841.265C301.064 851.564 298.455 870.095 298.455 870.095C306.009 863.892 387.627 882.007 487.858 868.414Z" fill="#4E5C93"/>
<path d="M484.517 913.651C485.323 913.257 486.279 913.517 486.781 914.226L486.931 914.478L663.701 1275.48C664.076 1276.24 663.864 1277.17 663.192 1277.69L662.083 1278.53L660.274 1279.86C659.832 1280.18 659.363 1280.52 658.867 1280.87C655.337 1283.37 651.183 1286.16 646.431 1289.17C632.868 1297.73 617.226 1306.3 599.713 1314.29C572.488 1326.72 543.275 1336.59 512.417 1342.96C511.441 1343.16 510.486 1342.54 510.285 1341.56C510.083 1340.59 510.711 1339.63 511.687 1339.43C542.267 1333.11 571.225 1323.33 598.214 1311.01C615.573 1303.09 631.073 1294.6 644.504 1286.12C648.678 1283.48 652.381 1281.01 655.596 1278.76L657.487 1277.42L659.803 1275.73L483.69 916.064C483.295 915.259 483.556 914.303 484.265 913.801L484.517 913.651Z" fill="#253368"/>
<path d="M270.624 988.622C270.976 987.69 272.018 987.22 272.95 987.573C273.789 987.89 274.254 988.765 274.081 989.616L274 989.898L158.476 1295.4L160.371 1296.58L162.669 1297.96C164.669 1299.15 166.877 1300.42 169.283 1301.76C178.914 1307.13 189.707 1312.51 201.402 1317.52C220.463 1325.69 240.023 1332.09 259.588 1336.05C260.565 1336.24 261.197 1337.2 260.999 1338.17C260.802 1339.15 259.85 1339.78 258.873 1339.58C239.046 1335.58 219.255 1329.1 199.98 1320.84C188.164 1315.77 177.26 1310.34 167.525 1304.91C164.602 1303.28 161.964 1301.75 159.632 1300.35L157.211 1298.87L155.279 1297.65C154.651 1297.23 154.352 1296.48 154.503 1295.77L154.581 1295.5L270.624 988.622Z" fill="#253368"/>
<path d="M348.055 875.239L348.347 875.278C349.226 875.454 349.827 876.241 349.797 877.109L349.747 877.476L342.835 912.359C340.455 924.433 337.917 937.362 335.249 951.02L333.781 958.542C322.651 1015.61 311.521 1073.73 301.031 1129.93L298.622 1142.86C297.34 1149.76 296.076 1156.59 294.828 1163.35L288.151 1199.8C278.309 1253.93 269.96 1301.81 263.417 1341.98L261.878 1351.48L264.344 1352.29C266.957 1353.14 269.586 1353.96 272.23 1354.75L276.208 1355.9C340.45 1374.08 409.106 1373.05 473.945 1360.38C484.234 1358.37 493.514 1356.22 501.63 1354.07L503.976 1353.44C505.106 1353.13 506.171 1352.83 507.169 1352.54L510.097 1351.68L429.657 948.638C429.481 947.759 429.978 946.902 430.791 946.597L431.073 946.516C431.953 946.341 432.811 946.837 433.116 947.65L433.196 947.932L513.958 1352.57C514.137 1353.47 513.614 1354.36 512.743 1354.64L510.098 1355.45L508.164 1356.01C506.815 1356.4 505.347 1356.81 503.764 1357.23L502.556 1357.55C494.364 1359.73 485.007 1361.9 474.637 1363.92C409.29 1376.69 340.092 1377.73 275.225 1359.37C269.846 1357.85 264.529 1356.2 259.276 1354.41C258.443 1354.13 257.936 1353.29 258.075 1352.42L260.315 1338.58C266.791 1298.97 274.983 1252.05 284.599 1199.15L288.807 1176.12C290.847 1165.01 292.937 1153.7 295.074 1142.2C305.464 1086.31 316.542 1028.27 327.67 971.041L337.312 921.73L346.223 876.693C346.399 875.814 347.187 875.213 348.055 875.239Z" fill="#253368"/>
<path d="M391.345 882.191C392.241 882.143 393.02 882.754 393.208 883.602L393.248 883.893L412.23 1220.42C412.286 1221.42 411.525 1222.27 410.53 1222.33C409.634 1222.38 408.854 1221.77 408.667 1220.92L408.626 1220.63L389.645 884.096C389.589 883.101 390.35 882.25 391.345 882.191Z" fill="#253368"/>
<path d="M439.581 873.585C440.438 873.319 441.342 873.723 441.73 874.5L441.839 874.772L513.106 1104.14C513.402 1105.09 512.87 1106.1 511.918 1106.39C511.062 1106.66 510.157 1106.26 509.769 1105.48L509.66 1105.21L438.393 875.842C438.097 874.891 438.629 873.88 439.581 873.585Z" fill="#253368"/>
<path d="M308.101 868.291C348.538 870.181 387.792 871.033 422.739 871.029L434.661 870.994C446.977 870.92 457.855 870.734 466.159 870.476L470.11 870.34C471.315 870.294 472.404 870.247 473.362 870.2L475.293 870.095C475.937 870.055 476.468 870.017 476.873 869.981L477.356 869.929L477.564 869.848C477.83 869.766 478.116 869.744 478.401 869.793L478.685 869.866L478.916 869.894C479.351 869.973 479.4 870.255 479.771 872.369L479.031 873.141C478.806 873.355 478.741 873.36 478.577 873.371C478.438 873.412 478.289 873.443 478.11 873.471L477.816 873.51C477.566 873.541 477.248 873.571 476.864 873.602L475.514 873.696C473.78 873.802 471.34 873.911 468.346 874.014L462.134 874.199C453.975 874.409 443.901 874.557 432.724 874.612L430.74 874.621C393.78 874.766 351.543 873.933 307.932 871.895C306.937 871.848 306.167 871.004 306.214 870.009C306.26 869.014 307.105 868.245 308.101 868.291Z" fill="#253368"/>
<path fill-rule="evenodd" clip-rule="evenodd" d="M259.344 688.157L296.616 592.19C305.6 569.056 294.016 542.781 270.875 533.8C247.733 524.819 221.449 536.395 212.461 559.528L175.548 654.586L259.344 688.157Z" fill="#597EF7"/>
<path d="M402.365 544.515C403.152 544.515 403.79 545.153 403.79 545.94C403.79 546.64 403.286 547.222 402.621 547.342L402.365 547.365H325.893C325.106 547.365 324.468 546.727 324.468 545.94C324.468 545.241 324.972 544.659 325.637 544.538L325.893 544.515H402.365Z" fill="#4E5C93"/>
<path d="M296.5 592.148C296.785 591.414 297.611 591.05 298.345 591.335C298.997 591.588 299.357 592.269 299.229 592.932L299.158 593.179L261.886 689.142C261.631 689.8 260.942 690.159 260.275 690.024L260.027 689.949L176.23 656.378C175.499 656.085 175.144 655.256 175.437 654.525C175.698 653.876 176.382 653.523 177.044 653.658L177.291 653.732L259.75 686.766L296.5 592.148Z" fill="#4E5C93"/>
<path fill-rule="evenodd" clip-rule="evenodd" d="M385.712 851.379L459.642 649.84C460.861 646.519 464.071 644.345 467.608 644.448L650.896 649.678C656.59 649.84 660.4 655.594 658.334 660.9L581.759 856.886C580.531 860.041 577.491 862.116 574.107 862.121L393.454 862.439C387.725 862.448 383.739 856.752 385.712 851.379Z" fill="#4E5C93"/>
<path fill-rule="evenodd" clip-rule="evenodd" d="M395.472 849.293L468.115 651.268C469.59 647.244 473.472 644.617 477.758 644.738L663.314 650.036C667.295 650.148 669.963 654.168 668.51 657.878L590.882 856.58C589.519 860.071 586.157 862.37 582.409 862.379L404.846 862.689C397.911 862.702 393.082 855.805 395.472 849.293Z" fill="#253368"/>
<path fill-rule="evenodd" clip-rule="evenodd" d="M492.702 664.743C494.679 667.136 493.765 671.156 490.653 673.719C487.547 676.287 483.427 676.426 481.45 674.033C479.473 671.64 480.387 667.62 483.494 665.056C486.605 662.488 490.725 662.349 492.702 664.743Z" fill="#4E5C93"/>
<path fill-rule="evenodd" clip-rule="evenodd" d="M490.141 667.05C491.168 668.291 490.693 670.379 489.079 671.71C487.465 673.041 485.322 673.118 484.3 671.876C483.273 670.63 483.749 668.542 485.363 667.211C486.972 665.88 489.115 665.808 490.141 667.05Z" fill="#FFC999"/>
<path fill-rule="evenodd" clip-rule="evenodd" d="M455.59 848.359C453.622 862.117 441.173 871.896 427.334 870.556L160.164 844.666C135.691 841.475 118.543 818.906 122.04 794.486C125.564 769.842 148.705 752.951 173.254 757.088L435.847 819.377C448.938 822.482 457.496 835.049 455.59 848.359Z" fill="#FFC999"/>
<path fill-rule="evenodd" clip-rule="evenodd" d="M455.635 880.81C455.635 880.81 394.329 874.599 386.444 847.311C379.302 822.6 403.102 812.507 403.102 812.507C403.102 812.507 425.172 798.731 453.702 793.976C472.5 790.848 508.852 788.518 511.829 798.166C515.716 810.746 474.418 810.988 474.342 820.57C474.266 830.398 482.802 830.98 501.774 838.688C513.636 843.506 521.028 840.517 530.304 846.518C548.433 858.246 527.107 893.121 455.635 880.81Z" fill="#FFC999"/>
<path d="M382.715 365.653C383.59 365.576 384.373 366.151 384.583 366.976L384.709 367.759C384.753 367.991 384.818 368.288 384.909 368.647C385.224 369.898 385.726 371.353 386.457 372.99C388.581 377.745 392.129 382.963 397.448 388.469C398.15 389.195 398.101 390.362 397.34 391.027L395.039 393.022C391.683 395.906 388.756 398.297 386.253 400.235L384.483 401.582L382.655 402.903C382.609 402.934 382.57 402.961 382.537 402.983C381.725 403.527 380.627 403.31 380.083 402.499C379.539 401.688 379.756 400.59 380.567 400.046L381.416 399.447L382.373 398.744C382.717 398.488 383.085 398.209 383.479 397.908L384.087 397.44C386.271 395.749 388.791 393.7 391.65 391.267L393.628 389.569L392.887 388.762C388.701 384.101 385.69 379.613 383.675 375.399L383.227 374.431C381.821 371.282 381.228 368.931 381.108 367.57C381.022 366.597 381.742 365.739 382.715 365.653Z" fill="#DD936F"/>
<path d="M353.1 472.699C353.425 471.779 354.436 471.296 355.357 471.622C367.092 475.769 378.766 476.93 390.035 475.286C391.002 475.145 391.899 475.814 392.041 476.78C392.182 477.746 391.512 478.643 390.546 478.785C378.706 480.512 366.453 479.294 354.178 474.955C353.257 474.63 352.774 473.62 353.1 472.699Z" fill="#DD936F"/>
<path d="M810.232 412.656C810.94 413.329 810.968 414.448 810.295 415.155L809.475 416.039L808.429 417.199C808.063 417.61 807.68 418.045 807.282 418.502C805.011 421.115 802.74 423.909 800.624 426.764C798.527 429.593 796.698 432.33 795.214 434.914C790.154 443.718 789.734 449.343 794.546 451.348C795.447 451.724 795.873 452.759 795.497 453.661C795.121 454.562 794.086 454.988 793.184 454.612C785.568 451.437 786.155 443.579 792.147 433.152C793.706 430.439 795.609 427.591 797.782 424.66C799.957 421.724 802.285 418.861 804.612 416.183L806.34 414.231L807.732 412.719C808.405 412.011 809.524 411.983 810.232 412.656Z" fill="#DD936F"/>
<path d="M817.08 434.426C817.674 435.201 817.528 436.311 816.752 436.905L815.891 437.583L814.789 438.476C814.403 438.793 814 439.128 813.581 439.481C811.19 441.495 808.799 443.655 806.572 445.869C804.202 448.227 802.161 450.507 800.552 452.647C796.262 458.354 795.592 462.114 798.66 463.994C799.938 464.778 801.376 464.951 803.035 464.565C805.46 464.001 808.199 462.274 811.001 459.741C812.271 458.593 813.468 457.357 814.551 456.121L815.378 455.152C815.603 454.879 815.778 454.659 815.897 454.503C816.489 453.727 817.598 453.577 818.375 454.168C819.152 454.76 819.302 455.869 818.711 456.646L818.118 457.388C817.867 457.692 817.563 458.05 817.211 458.452C816.043 459.784 814.753 461.116 813.373 462.364C810.166 465.263 806.965 467.281 803.837 468.009C801.317 468.596 798.93 468.307 796.811 467.009C791.286 463.623 792.345 457.679 797.724 450.523C799.446 448.232 801.596 445.831 804.077 443.363C806.38 441.073 808.841 438.85 811.302 436.777L812.545 435.742L814.6 434.099C815.375 433.505 816.486 433.651 817.08 434.426Z" fill="#DD936F"/>
<path d="M821.457 451.861C822.422 451.709 823.328 452.367 823.48 453.332C823.632 454.296 822.974 455.201 822.009 455.354C819.642 455.727 816.619 457.864 813.003 462.12C805.403 471.058 803.829 476.808 806.089 478.13C808.427 479.497 813.978 476.969 817.544 471.869C818.803 470.069 821.565 471.722 820.571 473.682C816.13 482.443 810.924 488.551 804.45 493.302L802.835 494.446C800.125 496.326 799.132 496.863 791.65 500.809L789.901 501.753C779.747 507.37 775.648 512.305 773.302 523.993C773.11 524.95 772.178 525.57 771.22 525.378C770.262 525.186 769.642 524.254 769.834 523.297C772.483 510.102 777.446 504.451 789.09 498.166L795.921 494.533C798.526 493.114 799.439 492.508 801.442 491.107C805.318 488.396 808.71 485.212 811.754 481.225L811.873 481.061L811.438 481.24C808.983 482.172 806.598 482.296 804.726 481.405L804.303 481.182C799.261 478.234 801.446 470.252 810.307 459.83C814.42 454.991 818.097 452.391 821.457 451.861Z" fill="#DD936F"/>
<path d="M773.456 430.044C774.332 429.972 775.112 430.55 775.318 431.376L775.364 431.66L777.509 457.551L778.173 458.724L778.664 459.639C779.679 461.561 780.693 463.701 781.639 466.008C784.387 472.706 786.027 479.426 785.993 485.764C785.965 490.71 784.901 495.222 782.647 499.17C782.163 500.018 781.083 500.314 780.234 499.83C779.386 499.346 779.091 498.266 779.575 497.418C781.507 494.033 782.432 490.115 782.456 485.745C782.487 479.941 780.952 473.652 778.366 467.35C777.646 465.593 776.884 463.937 776.114 462.41L775.536 461.289C774.961 460.201 774.519 459.432 774.275 459.036C774.178 458.878 774.106 458.706 774.063 458.527L774.018 458.254L771.839 431.952C771.759 430.979 772.483 430.125 773.456 430.044Z" fill="#DD936F"/>
<path d="M476.374 845.652C476.958 844.869 478.066 844.707 478.849 845.291L479.305 845.613C479.855 845.989 480.69 846.52 481.8 847.163C484.298 848.61 487.247 850.061 490.628 851.418C502.308 856.105 515.991 858.502 531.446 857.368C532.42 857.297 533.268 858.028 533.339 859.002C533.411 859.976 532.679 860.823 531.705 860.894C515.687 862.07 501.47 859.579 489.31 854.7C485.767 853.278 482.667 851.752 480.027 850.222C479.329 849.818 478.7 849.434 478.14 849.076L477.604 848.727C477.185 848.449 476.895 848.244 476.736 848.126C475.953 847.543 475.791 846.435 476.374 845.652Z" fill="#DD936F"/>
<path d="M467.309 861.047C467.723 860.163 468.776 859.781 469.66 860.195C470.541 860.608 471.433 861.004 472.334 861.384C485.911 867.112 500.102 868.858 512.053 868.361L513.422 868.293C514.211 868.249 514.753 868.205 515.023 868.176C515.995 868.075 516.865 868.781 516.966 869.752C517.067 870.723 516.361 871.592 515.39 871.693L514.384 871.776C514.159 871.792 513.904 871.808 513.622 871.824C500.903 872.545 485.636 870.833 470.959 864.642C470.016 864.244 469.083 863.829 468.161 863.398C467.276 862.984 466.895 861.931 467.309 861.047Z" fill="#DD936F"/>
<path d="M452.103 869.819C452.606 868.983 453.693 868.713 454.53 869.217L454.931 869.443C455.424 869.708 456.193 870.086 457.246 870.547C459.628 871.591 462.543 872.639 466.004 873.621C473.634 875.787 482.758 877.307 493.438 877.889C494.413 877.942 495.161 878.775 495.108 879.75C495.055 880.725 494.221 881.473 493.246 881.419C482.305 880.823 472.921 879.26 465.038 877.023C461.421 875.997 458.355 874.893 455.826 873.785C454.282 873.109 453.247 872.572 452.706 872.246C451.869 871.742 451.599 870.656 452.103 869.819Z" fill="#DD936F"/>
<defs>
<linearGradient id="paint0_linear" x1="24.6037" y1="636.256" x2="77.4902" y2="629.63" gradientUnits="userSpaceOnUse">
<stop stop-color="#FFBA00"/>
<stop offset="1" stop-color="#FA5800"/>
</linearGradient>
<linearGradient id="paint1_linear" x1="97.8402" y1="625.193" x2="61.8135" y2="671.454" gradientUnits="userSpaceOnUse">
<stop stop-color="#FFF75D"/>
<stop offset="1" stop-color="#F89800"/>
</linearGradient>
<linearGradient id="paint2_linear" x1="35.37" y1="580.352" x2="97.0118" y2="633.475" gradientUnits="userSpaceOnUse">
<stop stop-color="#FFF75D"/>
<stop offset="1" stop-color="#F89600"/>
</linearGradient>
<linearGradient id="paint3_linear" x1="208.88" y1="476.818" x2="186.68" y2="474.037" gradientUnits="userSpaceOnUse">
<stop stop-color="#FFBA00"/>
<stop offset="1" stop-color="#FA5800"/>
</linearGradient>
<linearGradient id="paint4_linear" x1="178.138" y1="472.175" x2="193.261" y2="491.593" gradientUnits="userSpaceOnUse">
<stop stop-color="#FFF75D"/>
<stop offset="1" stop-color="#F89800"/>
</linearGradient>
<linearGradient id="paint5_linear" x1="204.36" y1="453.352" x2="178.486" y2="475.651" gradientUnits="userSpaceOnUse">
<stop stop-color="#FFF75D"/>
<stop offset="1" stop-color="#F89600"/>
</linearGradient>
<clipPath id="clip0">
<rect width="463.236" height="463.236" fill="white" transform="translate(682.127 524.905)"/>
</clipPath>
<clipPath id="clip1">
<rect width="252.416" height="252.416" fill="white" transform="translate(974.358 517.215) rotate(30)"/>
</clipPath>
</defs>
</svg>
