<svg width="89" height="85" viewBox="0 0 89 85" fill="none" xmlns="http://www.w3.org/2000/svg">
<path fill-rule="evenodd" clip-rule="evenodd" d="M28.8979 10.3345L19.2071 15.0003L18.5996 25.3346L27.6832 31.0034L37.1769 26.4326L37.3741 26.3376L37.4063 25.7886L37.9814 16.0032L28.8979 10.3345Z" fill="#597EF7"/>
<path d="M60.276 50.6762L69.9669 46.0104L70.5742 35.6772V35.676L61.4907 30.0073L52.289 34.4375L37.4063 25.7886L37.3741 26.3376L37.1769 26.4325L51.7852 34.9221L51.1924 45.0075L51.3525 45.1074L37.308 53.3958L37.2936 53.2231L27.4724 48.767L18.5127 54.6455L19.3744 64.98L29.1956 69.436L38.1553 63.5576L37.3701 54.1398L51.9954 45.5087L60.276 50.6762Z" fill="#597EF7"/>
<path opacity="0.782971" fill-rule="evenodd" clip-rule="evenodd" d="M43.192 64.7979L38.9375 67.5886L39.3468 72.4947L44.0102 74.6102L48.2647 71.8195L47.8557 66.9133L43.192 64.7979Z" fill="#597EF7"/>
<path opacity="0.782971" fill-rule="evenodd" clip-rule="evenodd" d="M58.1602 18.1802L53.5497 20.3986L53.2607 25.3127L57.5823 28.0081L62.1927 25.7895L62.4818 20.8756L58.1602 18.1802Z" fill="#597EF7"/>
<path opacity="0.782971" fill-rule="evenodd" clip-rule="evenodd" d="M68.0898 23.1133L65.746 24.241L65.5992 26.7389L67.7959 28.1089L70.1395 26.9812L70.2864 24.4835L68.0898 23.1133Z" fill="#597EF7"/>
<path opacity="0.41748" fill-rule="evenodd" clip-rule="evenodd" d="M44.0754 55.8743L41.3563 57.8835L41.8229 61.1318L45.0085 62.371L47.7275 60.3618L47.2609 57.1134L44.0754 55.8743Z" fill="#597EF7"/>
</svg>
